<?xml version="1.0" encoding="utf-8"?>
<!-- Generator: Adobe Illustrator 18.0.0, SVG Export Plug-In . SVG Version: 6.00 Build 0)  -->
<!DOCTYPE svg PUBLIC "-//W3C//DTD SVG 1.1//EN" "http://www.w3.org/Graphics/SVG/1.1/DTD/svg11.dtd">
<svg version="1.1" id="Layer_1" xmlns="http://www.w3.org/2000/svg" xmlns:xlink="http://www.w3.org/1999/xlink" x="0px" y="0px"
	 viewBox="0 0 779.2 387.2" enable-background="new 0 0 779.2 387.2" xml:space="preserve">
<path stroke="#008B8B" fill="#FCFFF5" stroke-width="7" stroke-miterlimit="10" d="M753.6,144.6c-11.9-14.6-30.3-25.3-49-22.8
	c-0.5-9.9-9.4-18.7-19.3-19c-9.9-0.3-19.4,7.9-20.5,17.7c0.1-7.7-8.2-14.4-15.8-12.6c6.6-1.6-14.1-19.2-15.5-20.1
	c-6.1-3.8-15.3-10.7-21.7-3.4l-0.2,1.9c-12.8-14.3-28.5-25.9-45.8-34.2l3.4,0.7c0.7-11.9-11-22.8-22.8-21.5l-0.1-1
	c-12.9-14-31.5-20.4-49.7-24c-21.4-4.2-43.8-5.9-65.5-2.9c-26.9,3.8-53.9,16.2-70.4,38.3c-5.3-3.7-11.4-6.3-16.9-3.5
	c-8.6,4.5-3.6,14.5-8.7,19.8c-5.2,5.4-22.9,6.6-30.2,10.6c-9.2,5-17.3,12.8-20.6,22.7c-2.6,8-2,16.6-1.3,25c-3.5,0.5-6.9,4.4-9.1,8
	c-2.5-1.7-4.9-3.3-7.3-4.9c-7-4-12,2-18,5c-2,1-5-1-6-2c-5-8-6-18-10-26c-6-11-21-9-29-1c-1,2-3,3-5,5c-4,6-5,13-3,21c0,2-2,3-3,4
	c-13,4-28,14-23,28.6c-0.7-0.2-2-0.6-3.3-1c-15.6-3.8-32.5,4.6-41.9,17.1c-12.8,16.3-14.8,38.3-11.8,58.3c-17,4-40,11-37,33
	c-6,10-17,19-29,16c-5-1-9-3-13-6l-3-3c-5-1-11-5-15.5-1.6l-1.3,0.2c0.4-1.8,0.3-8.1-3.4-6c-2.2,1.3,0.1,5.5,0.9,7l-0.3,0
	c-1.6-2.1-3.4-4.1-5.3-5.8l0.7,3.6c-4.8,1.6-7.1,8.3-4.3,12.5c0.7,1.1,1.6,2,2.5,2.8c1.2,1.1,2.3,2.3,3.5,3.4
	c15.6-1,28.5,7.9,43.4,11.9c7,2,13-2,18.2-7.2c2.4,14.6,21.6,12.1,31.8,8.6c-9.4,16.5,3.8,35.2,17.5,44.4c8.4,5.6,18.5,7.9,27,13.4
	c7.6,5,9.2,13.6,13.2,21c4.2,7.7,12.7,10.6,21,10.3c4.5-0.1,9.3-1,12.7-4.2c2.7-2.6,4.5-6.7,3.4-10.4c4.2,8.1,16.1,9.1,24.2,8.4
	c10.7-0.9,21.9-8,22.5-19.6c1.3,0.3,2.7,0.5,4,0.8c0.4-0.2,0.9-0.4,1.5-0.5c2.6-0.4,5.3-0.7,8-1c0.2,0.6,0.4,1.2,0.8,1.8
	c0.9,1.4,2.4,2.4,3.9,3.1c2.5,1.2,5.5,1.7,8.2,0.9c2.3-0.7,4.3-2.5,4.9-4.8c1.2,1.3,2.7,2.2,4.3,2.9c3.2,1.3,6.8,1.3,10.2,1.4
	c2.4,0,4.7,0.1,7.1,0.1c1.2,0,2.6,0,3.4-0.9c0.5-0.5,0.8-1.3,1-2c0.8-3.3,0.3-6.7-1.1-9.8c0.6,0,1.1-0.2,1.6-0.5c0-0.8,0-1.6,0-2.5
	c7.2,0.5,14.5,0.6,21.8,0.5c5.7-0.1,11.8-0.5,16.4-4c4.8-3.7,8.2-13.8,3.4-18.9c-2-2.1-5.8-3.8-9.9-5c1.1-1.9,1.9-4.1,2.6-6.4
	c0.2-0.6,0.4-1.2,0.8-1.6c-0.2-5.5-1-11-2.1-16.3c4.9,4.3,11.3,6.1,16.9,7c0.9,0.1,1.8,0.2,2.7,0.3c0.4-0.1,0.8-0.1,1.2-0.1
	c6.7,0,15.2-0.1,18.1-7c0.2-1.2,0.3-2.7,0-4.3c0-3-0.1-6-0.1-9.1c0.3,5.8,8.4,6.5,12.7,6.6c3.9,0.1,7.8-0.2,11.6-0.9
	c2.6-0.9,5.2-2.1,8-3.2c3.1-1.2,6.4,1.8,6.3,4.8c0,3-1.6,5.6-2.5,8.2c0.9,4.7,3,9.1,6.6,12.5c4.9,4.4,12.4,5.7,18,1.9
	c1.1,0.9,2.1,1.8,3.2,2.7c0,6.9,0.7,14.2,8.1,17.5c5,2,9,3,14,2c1.3-0.6,2.6-1.7,3.6-2.9c14.6,7.4,30.3,12.4,46.2,16.1
	c9.3,2.2,18.8,3.9,28.2,5.2c9.7,1.4,19.9,2.3,29.4-0.7c11.9-3.7,23.8-14.9,21.1-28.5c20.9,3.7,43.1,6.7,63.8-0.1
	c16.2-5.4,30.5-17.3,36.1-33.7c3.8-10.9,5-22.9,4.2-34.5c-0.6-8.2-3.1-17.8-11.5-21.2c8.3-7.4,13.3-18.3,13.6-29.4
	c1.4,0,2.7,0,4.1,0c0.5-2.5,0.6-5.6-0.9-7.3c4.3-3.8,5-10.6,5-15.9c0-2,2-3,3-4c7-3,16,0,21,6s6,13,10,20c2,2,3,4,6,5c1,0,2-1,2-1
	c2-6,6-12,13-7c5,4,10,8,17,8c1-4,0-8,1.5-12.5l3.1-4C772,177.4,765.5,159.3,753.6,144.6z M333.3,296.8c-0.1-0.3-0.1-0.5-0.2-0.8
	l0.4,0.1C333.6,296.4,333.5,296.6,333.3,296.8z M169.6,154.3c-1.1-0.4-2.2-0.7-3.3-1c-2-0.7-4.1-1.6-4.3-2.9
	c-0.3-1.8,1.8-1.3,2.8-0.8c1.6,0.6,2.9,1.9,3.9,3.4c-0.7-1.4-1.1-2.9-1.4-4.3C168.3,150.3,168.9,152.3,169.6,154.3z M335.2,317.9
	c0-0.2,0-0.5,0-0.7C335.2,317.4,335.2,317.7,335.2,317.9L335.2,317.9z M334.7,311.6c0,0,0-0.1,0-0.1l-0.1-0.1
	C334.7,311.5,334.7,311.5,334.7,311.6z"/>
</svg>
